<svg width="48" height="48" viewBox="0 0 48 48" fill="none" xmlns="http://www.w3.org/2000/svg">
<g clip-path="url(#clip0_3_379)">
<path fill-rule="evenodd" clip-rule="evenodd" d="M24 0.154236C37.2548 0.154236 48 10.8956 48 24.1457C48 36.1206 39.2235 46.046 27.75 47.8458V31.0808H33.3422L34.4062 24.1457H34.2908L34.3021 24.0717H27.75V19.6453C27.75 17.748 28.6798 15.8987 31.6612 15.8987H34.6875V9.9945C34.6875 9.9945 34.6515 9.98837 34.5839 9.9775V9.86683C34.5839 9.86683 31.832 9.39647 29.201 9.39647C23.7082 9.39647 20.1182 12.7304 20.1182 18.7661V24.0717H14.0125V31.0331H14.1562V31.0808H20.1182V47.8247C8.70928 45.9698 0 36.0747 0 24.1457C0 10.8956 10.7452 0.154236 24 0.154236Z" fill="white"/>
</g>
<defs>
<clipPath id="clip0_3_379">
<rect width="48" height="48" fill="white"/>
</clipPath>
</defs>
</svg>
