<svg width="48" height="48" viewBox="0 0 48 48" fill="none" xmlns="http://www.w3.org/2000/svg">
<g clip-path="url(#clip0_2_159)">
<path fill-rule="evenodd" clip-rule="evenodd" d="M47.8557 14.421C47.7389 11.9478 47.3331 10.2588 46.7399 8.78119C46.1375 7.23086 45.1926 5.8266 43.9717 4.66589C42.7731 3.4839 41.3221 2.56888 39.7207 1.98533C38.194 1.41136 36.4497 1.0189 33.895 0.90652C31.3356 0.793072 30.5178 0.766129 24 0.766129C17.4822 0.766129 16.6644 0.793072 14.105 0.905811C11.5503 1.0189 9.80603 1.41172 8.2793 1.98604C6.67786 2.56923 5.22729 3.4839 4.02832 4.66589C2.80737 5.82624 1.86218 7.23051 1.2594 8.78084C0.666504 10.2588 0.261108 11.9478 0.14502 14.4206C0.027832 16.8987 0 17.69 0 23.9998C0 30.31 0.027832 31.1016 0.14502 33.5794C0.261475 36.0522 0.667236 37.7411 1.2605 39.2192C1.86292 40.7691 2.80774 42.1737 4.02869 43.3341C5.22729 44.5161 6.67822 45.4308 8.27966 46.0139C9.80603 46.5886 11.5507 46.9811 14.1053 47.0942C16.6652 47.2073 17.4825 47.2339 24.0004 47.2339C30.5182 47.2339 31.3359 47.2073 33.8954 47.0942C36.4501 46.9811 38.1943 46.5886 39.7211 46.0139C42.9448 44.8071 45.4933 42.34 46.7399 39.2192C47.3335 37.7411 47.7389 36.0522 47.8557 33.5794C47.9722 31.1013 48 30.31 48 24.0002C48 17.69 47.9722 16.8987 47.8557 14.421ZM43.5355 33.389C43.429 35.6544 43.0378 36.8846 42.7094 37.7032C41.9019 39.7297 40.2477 41.331 38.1544 42.1128C37.3088 42.4308 36.0381 42.8094 33.698 42.9126C31.1678 43.0246 30.4087 43.048 24 43.048C17.5909 43.048 16.8322 43.0246 14.3016 42.9126C11.9619 42.8094 10.6912 42.4308 9.84521 42.1128C8.80298 41.7402 7.85999 41.1463 7.08582 40.3745C6.28857 39.6251 5.67517 38.7125 5.29028 37.7032C4.96179 36.8846 4.57068 35.6544 4.46411 33.389C4.34875 30.9393 4.32422 30.2043 4.32422 24.0005C4.32422 17.7964 4.34875 17.0618 4.46411 14.6117C4.57104 12.3463 4.96179 11.1161 5.29028 10.2975C5.67517 9.28816 6.28894 8.37526 7.08582 7.6258C7.85999 6.854 8.80298 6.26018 9.84558 5.88793C10.6912 5.56957 11.9619 5.19129 14.302 5.08777C16.8325 4.97609 17.5917 4.95234 24 4.95234C30.408 4.95234 31.1672 4.9761 33.698 5.08812C36.0381 5.19129 37.3085 5.56992 38.1544 5.88793C39.1967 6.26053 40.1396 6.85436 40.9138 7.6258C41.7111 8.37526 42.3245 9.28816 42.709 10.2975C43.0378 11.1161 43.429 12.3463 43.5355 14.6117C43.6509 17.0614 43.6754 17.7964 43.6754 24.0002C43.6754 30.2043 43.6512 30.9389 43.5355 33.389ZM23.9996 12.069C17.1932 12.069 11.6755 17.411 11.6755 24.0002C11.6755 30.5893 17.1932 35.9309 23.9996 35.9309C30.8064 35.9309 36.3241 30.5893 36.3241 24.0002C36.3241 17.411 30.8064 12.069 23.9996 12.069ZM23.9996 31.7447C19.5817 31.7444 15.9998 28.2771 16.0001 23.9998C16.0001 19.7228 19.5817 16.2553 24 16.2553C28.4183 16.2556 31.9999 19.7228 31.9999 23.9998C31.9999 28.2771 28.418 31.7447 23.9996 31.7447ZM36.8111 14.3858C38.4016 14.3858 39.691 13.1376 39.691 11.5979C39.691 10.0578 38.4016 8.80955 36.8111 8.80955C35.2203 8.80955 33.9309 10.0578 33.9309 11.5979C33.9309 13.1376 35.2203 14.3858 36.8111 14.3858Z" fill="white"/>
</g>
<defs>
<clipPath id="clip0_2_159">
<rect width="48" height="48" fill="white"/>
</clipPath>
</defs>
</svg>
