<svg width="48" height="48" viewBox="0 0 48 48" fill="none" xmlns="http://www.w3.org/2000/svg">
<path fill-rule="evenodd" clip-rule="evenodd" d="M19.3083 18.9001V17.0279C18.6585 16.9359 18.0033 16.8881 17.347 16.885C9.32179 16.885 2.79272 23.4152 2.79272 31.4405C2.79272 36.3634 5.25307 40.7212 9.00628 43.3564C6.4932 40.6688 5.09605 37.1262 5.09807 33.4468C5.09807 25.5358 11.4413 19.0848 19.3083 18.9001Z" fill="white"/>
<path fill-rule="evenodd" clip-rule="evenodd" d="M19.6511 40.0934C23.2317 40.0934 26.1527 37.245 26.2857 33.6952L26.2978 2.00632H32.087C31.9634 1.34468 31.9009 0.673085 31.9001 0H23.9936L23.9804 31.69C23.8485 35.2387 20.9264 38.086 17.3469 38.086C16.2722 38.0864 15.2137 37.8246 14.2632 37.3231C14.8769 38.1793 15.6857 38.8772 16.6226 39.3589C17.5595 39.8407 18.5976 40.0924 19.6511 40.0934ZM42.9019 12.7624V11.0012C40.7743 11.0032 38.6924 10.3843 36.9115 9.22029C38.4729 11.0181 40.5752 12.2609 42.903 12.7624" fill="white"/>
<path fill-rule="evenodd" clip-rule="evenodd" d="M36.9106 9.21909C35.1653 7.22207 34.204 4.65954 34.2051 2.00732H32.0867C32.361 3.47326 32.9299 4.86827 33.7591 6.10789C34.5883 7.34751 35.6604 8.40594 36.9106 9.21909ZM17.3466 24.7925C15.5844 24.7946 13.8951 25.4955 12.649 26.7416C11.403 27.9876 10.7021 29.677 10.7 31.4392C10.7012 32.6514 11.0336 33.8403 11.6614 34.8773C12.2892 35.9142 13.1884 36.7599 14.2619 37.323C13.4445 36.1958 13.0044 34.839 13.0043 33.4467C13.006 31.6843 13.7068 29.9946 14.9529 28.7483C16.1989 27.502 17.8885 26.8009 19.6509 26.7989C20.3358 26.7989 20.9921 26.9121 21.6121 27.1067V19.0341C20.9624 18.9421 20.3071 18.8943 19.6509 18.8912C19.5354 18.8912 19.4222 18.8978 19.3079 18.9V25.1004C18.6736 24.8985 18.0122 24.7947 17.3466 24.7925Z" fill="white"/>
<path fill-rule="evenodd" clip-rule="evenodd" d="M42.9019 12.7623V18.9077C38.8013 18.9077 35.003 17.5962 31.9006 15.37V31.4393C31.9006 39.4645 25.3727 45.9936 17.3474 45.9936C14.2461 45.9936 11.3702 45.0152 9.00659 43.3552C10.3655 44.8206 12.0124 45.9896 13.8442 46.7889C15.676 47.5881 17.6531 48.0004 19.6516 47.9999C27.6769 47.9999 34.206 41.4709 34.206 33.4467V17.3774C37.4109 19.682 41.2597 20.9197 45.2072 20.9151V13.0064C44.4157 13.0064 43.6461 12.9206 42.9019 12.7612" fill="white"/>
<path fill-rule="evenodd" clip-rule="evenodd" d="M31.9006 31.4392V15.37C35.1054 17.6748 38.9543 18.9125 42.9019 18.9077V12.7623C40.5744 12.2603 38.4724 11.0171 36.9115 9.21909C35.6613 8.40594 34.5891 7.34751 33.7599 6.10789C32.9308 4.86827 32.3618 3.47326 32.0875 2.00732H26.2983L26.2862 33.6962C26.1532 37.2449 23.2322 40.0934 19.6516 40.0934C18.5981 40.0923 17.56 39.8404 16.6231 39.3587C15.6863 38.877 14.8775 38.1792 14.2637 37.323C13.19 36.7601 12.2905 35.9145 11.6625 34.8775C11.0345 33.8405 10.7019 32.6516 10.7007 31.4392C10.7027 29.677 11.4036 27.9876 12.6497 26.7416C13.8957 25.4955 15.5852 24.7946 17.3474 24.7925C18.0312 24.7925 18.6875 24.9047 19.3086 25.1004V18.9C11.4416 19.0847 5.09839 25.5357 5.09839 33.4467C5.09839 37.2724 6.58472 40.7552 9.0066 43.3562C11.4481 45.075 14.3616 45.9962 17.3474 45.9936C25.3727 45.9936 31.9006 39.4645 31.9006 31.4392Z" fill="white"/>
</svg>
