<svg width="48" height="48" viewBox="0 0 48 48" fill="none" xmlns="http://www.w3.org/2000/svg">
<path d="M48 9.11746C46.2333 9.90046 44.3365 10.4295 42.3455 10.6673C44.3774 9.44949 45.9409 7.51925 46.6743 5.21981C44.7726 6.34971 42.6639 7.16864 40.4214 7.60969C38.6262 5.6968 36.0678 4.5 33.2369 4.5C27.7992 4.5 23.3911 8.90932 23.3911 14.3457C23.3911 15.1176 23.4778 15.8683 23.6475 16.5906C15.4631 16.1793 8.20917 12.2594 3.35255 6.30263C2.50512 7.75588 2.01946 9.44825 2.01946 11.2521C2.01946 14.6678 3.41326 17.6821 6.05591 19.4476C4.44158 19.3955 2.49397 18.9533 1.25504 18.2149V18.3387C1.25504 23.1098 4.99042 27.088 9.49395 27.9924C8.66634 28.2179 7.96758 28.3393 7.07059 28.3393C6.43626 28.3393 5.90476 28.2774 5.30387 28.1622C6.55891 32.0722 10.2385 34.9205 14.5451 34.9998C11.1764 37.6399 6.95166 39.2146 2.34035 39.2146C1.54371 39.2146 0.771856 39.1675 0 39.077C4.35733 41.8708 9.53731 43.5 15.0976 43.5C33.2084 43.5 43.1136 28.4979 43.1136 15.488C43.1136 15.0606 43.1037 14.6356 43.0864 14.2144C45.0105 12.8268 46.6818 11.0911 48 9.11746Z" fill="white"/>
</svg>
